<svg width="44" height="44" viewBox="0 0 44 44" fill="none" xmlns="http://www.w3.org/2000/svg">
<path fill-rule="evenodd" clip-rule="evenodd" d="M32.7661 22.25C32.7661 21.47 32.6961 20.72 32.5661 20H22.2061V24.255H28.1261C27.8711 25.63 27.0961 26.795 25.9311 27.575V30.335H29.4861C31.5661 28.42 32.7661 25.6 32.7661 22.25Z" fill="#4285F4"/>
<path fill-rule="evenodd" clip-rule="evenodd" d="M22.2055 33C25.1755 33 27.6655 32.015 29.4855 30.335L25.9305 27.575C24.9455 28.235 23.6855 28.625 22.2055 28.625C19.3405 28.625 16.9155 26.69 16.0505 24.09H12.3755V26.94C14.1855 30.535 17.9055 33 22.2055 33Z" fill="#34A853"/>
<path fill-rule="evenodd" clip-rule="evenodd" d="M16.0511 24.09C15.8311 23.43 15.7061 22.7249 15.7061 21.9999C15.7061 21.2749 15.8311 20.5699 16.0511 19.9099V17.0599H12.3761C11.6311 18.5449 11.2061 20.2249 11.2061 21.9999C11.2061 23.775 11.6311 25.455 12.3761 26.94L16.0511 24.09Z" fill="#FBBC05"/>
<path fill-rule="evenodd" clip-rule="evenodd" d="M22.2055 15.375C23.8205 15.375 25.2705 15.93 26.4105 17.02L29.5655 13.865C27.6605 12.09 25.1705 11 22.2055 11C17.9055 11 14.1855 13.465 12.3755 17.06L16.0505 19.91C16.9155 17.31 19.3405 15.375 22.2055 15.375Z" fill="#EA4335"/>
</svg>
