<svg width="263" height="89" viewBox="0 0 263 89" fill="none" xmlns="http://www.w3.org/2000/svg">
<path d="M28.2529 19.6953H19.4438V45.0891H28.2529V19.6953Z" fill="#FF7D08"/>
<path d="M40.6998 19.6954H31.8828V45.0893H40.6998V19.6954Z" fill="#FF7D08"/>
<path d="M52.7613 19.6954H43.9443V32.3963H52.7613V19.6954Z" fill="#FF7D08"/>
<path d="M65.2095 19.6954H56.4004V32.3963H65.2095V19.6954Z" fill="#FF7D08"/>
<path d="M43.9446 45.4277H56.4005V50.227H19.7275V58.6653H31.4335L31.2993 70.0559L42.4685 58.6653H56.4005H65.2016V50.227V45.4277V38.3155V36.6184H43.9446V45.4277Z" fill="#FF7D08"/>
<path d="M99.83 46.4533H87.903L85.9928 52.0973H77.8389L89.4028 20.1281H98.4171L109.981 52.0973H101.74L99.83 46.4533ZM97.8251 40.4463L93.8625 28.74L89.9474 40.4463H97.8251Z" fill="white"/>
<path d="M134.711 30.2502C134.135 29.1846 133.306 28.3794 132.232 27.8111C131.151 27.2506 129.888 26.9665 128.428 26.9665C125.91 26.9665 123.889 27.7953 122.374 29.4451C120.858 31.1027 120.1 33.3051 120.1 36.0678C120.1 39.0122 120.897 41.3092 122.492 42.9669C124.086 44.6245 126.281 45.4455 129.075 45.4455C130.985 45.4455 132.603 44.964 133.922 43.9851C135.24 43.0142 136.203 41.6171 136.811 39.7936H126.928V34.0549H143.867V41.2934C143.291 43.2352 142.312 45.0429 140.931 46.7084C139.55 48.3819 137.797 49.7317 135.674 50.7658C133.551 51.7998 131.151 52.3129 128.483 52.3129C125.326 52.3129 122.508 51.6183 120.037 50.2369C117.566 48.8555 115.633 46.9374 114.251 44.4745C112.87 42.0117 112.183 39.2095 112.183 36.052C112.183 32.8946 112.87 30.0766 114.251 27.6058C115.633 25.1351 117.551 23.2012 120.013 21.8198C122.476 20.4384 125.278 19.7438 128.436 19.7438C132.264 19.7438 135.485 20.6673 138.113 22.5223C140.742 24.3773 142.478 26.9428 143.331 30.2186H134.711V30.2502Z" fill="white"/>
<path d="M155.044 50.3306C152.542 48.9335 150.553 46.9837 149.077 44.4815C147.601 41.9792 146.867 39.1611 146.867 36.0353C146.867 32.9094 147.601 30.0992 149.077 27.6128C150.545 25.1263 152.534 23.1844 155.044 21.7872C157.547 20.3901 160.301 19.6954 163.309 19.6954C166.316 19.6954 169.071 20.3901 171.573 21.7872C174.075 23.1844 176.049 25.1263 177.493 27.6128C178.938 30.0992 179.656 32.9094 179.656 36.0353C179.656 39.1611 178.93 41.9792 177.47 44.4815C176.009 46.9837 174.036 48.9414 171.549 50.3306C169.063 51.7278 166.316 52.4225 163.309 52.4225C160.301 52.4225 157.547 51.7278 155.044 50.3306ZM169.434 42.7685C170.965 41.0714 171.731 38.8217 171.731 36.0274C171.731 33.2015 170.965 30.9518 169.434 29.2625C167.903 27.5812 165.858 26.7366 163.309 26.7366C160.728 26.7366 158.667 27.5733 157.136 29.2388C155.605 30.9123 154.839 33.1699 154.839 36.0195C154.839 38.8454 155.605 41.0951 157.136 42.7843C158.667 44.4657 160.728 45.3103 163.309 45.3103C165.858 45.3182 167.903 44.4657 169.434 42.7685Z" fill="white"/>
<path d="M200.282 52.1034L193.636 40.034H191.765V52.1034H183.982V20.1342H197.053C199.571 20.1342 201.718 20.5762 203.495 21.4524C205.271 22.3365 206.597 23.5363 207.481 25.0756C208.365 26.6069 208.799 28.3199 208.799 30.1985C208.799 32.3219 208.199 34.2243 206.999 35.8899C205.799 37.5633 204.031 38.7474 201.695 39.442L209.075 52.1034H200.282ZM191.765 34.5243H196.596C198.024 34.5243 199.09 34.1769 199.808 33.4744C200.519 32.7719 200.882 31.7931 200.882 30.5143C200.882 29.2987 200.527 28.3435 199.808 27.641C199.098 26.9464 198.024 26.5912 196.596 26.5912H191.765V34.5243Z" fill="white"/>
<path d="M233.568 46.4533H221.641L219.731 52.0973H211.577L223.141 20.1281H232.155L243.719 52.0973H235.478L233.568 46.4533ZM231.563 40.4463L227.601 28.74L223.686 40.4463H231.563Z" fill="white"/>
</svg>
